PathFileType	4	(X/Y/Z)	E:\3-PhD\Data\MocapData\ElaboratedData\015\pre\dynamicElaborations\RunL1\RunL1.trc
DataRate	CameraRate	NumFrames	NumMarkers	Units	OrigDataRate	OrigDataStartFrame	OrigNumFrames
200	200	4	61	mm	200	2.560000e+02	124
Frame#	Time	FHD			LBHD			RBHD			C7			T10			CLAV			LSHO			LUUPA			LMUPA			LDUPA			LLEP			LMEP			LRAD			LUL			LRFIN			RSHO			RUPA1			RMUPA			RDUPA			RLEP			RMEP			RRAD			RUL			RUFIN			LASI			RASI			USACR			LSACR			RSACR			LTHI1			LTHI2			LTHI3			LTHI4			LLFC			LMFC			LTIB1			LTIB2			LTIB3			LTIB4			LLMAL			LMMAL			LHEE			LMT1			LMT5			LMT2			RTHI			RTHI2			RTHI3			RTHI4			RLFC			RMFC			RTIB1			RTIB2			RTIB3			RTIB4			RLMAL			RMMAL			RHEE			RMT1			RMT2			RMT5		
		X1	Y1	Z1	X2	Y2	Z2	X3	Y3	Z3	X4	Y4	Z4	X5	Y5	Z5	X6	Y6	Z6	X7	Y7	Z7	X8	Y8	Z8	X9	Y9	Z9	X10	Y10	Z10	X11	Y11	Z11	X12	Y12	Z12	X13	Y13	Z13	X14	Y14	Z14	X15	Y15	Z15	X16	Y16	Z16	X17	Y17	Z17	X18	Y18	Z18	X19	Y19	Z19	X20	Y20	Z20	X21	Y21	Z21	X22	Y22	Z22	X23	Y23	Z23	X24	Y24	Z24	X25	Y25	Z25	X26	Y26	Z26	X27	Y27	Z27	X28	Y28	Z28	X29	Y29	Z29	X30	Y30	Z30	X31	Y31	Z31	X32	Y32	Z32	X33	Y33	Z33	X34	Y34	Z34	X35	Y35	Z35	X36	Y36	Z36	X37	Y37	Z37	X38	Y38	Z38	X39	Y39	Z39	X40	Y40	Z40	X41	Y41	Z41	X42	Y42	Z42	X43	Y43	Z43	X44	Y44	Z44	X45	Y45	Z45	X46	Y46	Z46	X47	Y47	Z47	X48	Y48	Z48	X49	Y49	Z49	X50	Y50	Z50	X51	Y51	Z51	X52	Y52	Z52	X53	Y53	Z53	X54	Y54	Z54	X55	Y55	Z55	X56	Y56	Z56	X57	Y57	Z57	X58	Y58	Z58	X59	Y59	Z59	X60	Y60	Z60	X61	Y61	Z61	
349	1.740000	-30.510707	1525.575307	253.092718	-163.241022	1571.884213	230.742717	-181.672887	1569.085644	357.724780	-322.399362	1451.103972	278.159368	-418.270358	1127.851958	233.447443	-188.041924	1337.206082	269.055113	-243.148667	1443.677559	97.339420	-287.084484	1266.767819	-3.362366	-268.153565	1225.056092	10.843441	-305.246056	1206.174332	-31.590166	-349.103480	1140.520422	-61.347189	-395.988021	1117.495762	26.938181	-195.122028	942.328580	13.267200	-189.075861	981.926076	77.840106	-112.177051	949.264668	88.101994	-284.818720	1391.923863	455.794974	-356.276884	1236.751918	542.974893	-324.095451	1198.992859	547.105263	-374.482485	1173.571951	569.414602	-378.059016	1063.475466	592.392801	-417.031016	1046.110072	523.578285	-156.651332	971.473380	476.334293	-163.950756	914.343244	527.628057	-76.523511	950.549257	480.711032	-268.216779	928.753491	127.557316	-285.354161	944.406130	372.618762	-451.011772	1019.835486	233.454485	-455.465280	986.566190	207.616659	-461.756355	992.481365	264.552143	-362.292862	645.409894	29.623509	-323.562832	571.413710	18.610534	-275.698479	570.799208	24.778634	-342.544326	514.685629	36.469999	-357.874561	448.543246	44.337005	-331.962580	415.196399	172.793472	-481.112210	364.991846	80.972513	-536.682328	420.787800	43.669274	-532.088843	382.925873	62.646986	-609.042490	369.211824	101.152018	-731.020698	417.514805	108.592848	-716.491486	382.564424	187.969636	-779.684846	471.903781	180.186812	-773.768598	260.071797	152.478524	-810.389457	314.939415	67.837872	-775.385621	269.857089	103.218850	-284.992817	766.199997	447.243595	-232.216900	730.246457	441.493167	-203.200636	744.461656	428.556794	-230.778287	645.310549	432.842189	-202.343977	461.966239	378.655788	-170.822021	478.614600	256.541644	-207.645322	255.119642	308.541892	-301.915841	202.835057	336.204720	-259.888101	185.791858	320.288474	-268.854906	143.391359	282.882935	-340.561819	98.548629	298.938284	-329.750781	112.571610	218.118902	-432.155235	56.658779	241.807139	-204.189753	54.911078	245.900339	-212.753421	54.269215	287.629717	-259.165861	30.655398	341.248158	
350	1.745000	-8.266089	1527.356303	252.203548	-141.389674	1572.751205	230.339390	-159.228327	1569.935188	357.444777	-299.494920	1451.418749	279.490884	-395.269602	1128.343962	234.924988	-165.049478	1338.116656	268.408772	-222.496519	1444.099037	97.427171	-268.650775	1267.685550	-2.151530	-249.302599	1225.986161	11.553958	-287.177630	1207.061414	-30.084124	-332.726677	1141.639232	-60.092324	-377.892449	1118.713265	29.254105	-180.714765	940.181668	7.948957	-172.650170	978.150621	73.605016	-96.616472	942.682479	82.524138	-259.066882	1391.952529	456.456533	-328.752725	1235.293246	542.271732	-295.871384	1198.055791	546.458153	-346.075520	1171.879947	568.462276	-346.303708	1061.120317	590.622697	-385.730444	1043.735389	521.695340	-125.146000	973.279436	470.619977	-130.390017	915.387310	521.662180	-44.881086	953.766988	473.601326	-245.940692	928.087291	128.502777	-262.947716	945.192229	374.196645	-427.904373	1020.597021	233.340931	-432.557195	987.535118	207.256638	-438.521267	992.980522	264.258998	-331.179606	645.246074	29.571997	-290.064784	572.495463	18.464170	-242.114416	573.270029	24.946930	-306.897876	515.197280	36.909555	-319.103729	448.569921	45.204735	-292.997196	416.955751	174.129079	-440.198090	363.321000	83.169762	-496.574261	416.539374	43.718563	-491.432342	379.552180	64.222918	-568.254082	365.744665	102.906293	-691.369661	412.005543	110.315803	-676.549130	377.831337	189.800598	-741.984933	465.554744	181.472540	-730.786200	253.856096	154.490062	-767.779031	307.658464	69.333513	-732.136022	263.359150	105.163071	-263.701552	764.680497	447.194723	-211.870513	727.368368	441.239243	-182.703609	740.728580	427.839795	-212.643216	642.382743	432.859780	-190.733541	457.041633	379.097877	-159.388021	472.123171	256.747200	-201.605590	251.225958	308.125330	-297.364904	201.741592	336.118591	-255.844563	183.352699	319.784072	-266.466908	141.626031	282.171345	-339.763243	99.558609	299.099595	-328.489835	113.677101	218.323575	-431.991851	57.870342	241.421955	-204.148321	55.051305	246.235443	-212.914100	54.255548	287.896300	-259.397237	30.629271	341.275373	
351	1.750000	13.994283	1529.425264	251.279140	-119.535296	1573.858499	229.853077	-136.844540	1570.997165	357.073182	-276.608092	1451.937253	280.712478	-372.097783	1128.994933	236.401689	-142.066692	1339.261817	267.699023	-201.956834	1444.799117	97.461317	-250.493068	1269.131585	-1.350496	-230.803189	1227.370855	11.848347	-269.514197	1208.550548	-29.034385	-316.717644	1143.403180	-59.082548	-360.094758	1120.654807	31.323957	-166.069701	939.561129	3.135534	-156.192888	976.049191	69.623550	-81.070540	938.086159	77.522047	-233.123043	1392.462736	456.955437	-301.300257	1234.471452	541.599238	-267.799515	1197.740815	545.829415	-317.847821	1170.849542	567.454269	-315.013651	1059.685168	588.820444	-354.882495	1042.413578	519.696590	-93.997601	976.394397	464.662997	-97.138032	917.683098	515.228386	-13.578960	958.400104	466.222438	-223.670965	927.811948	129.243509	-241.013362	946.306898	376.240284	-404.678927	1021.781627	233.532012	-409.530714	988.906918	207.218261	-415.139157	993.899851	264.285531	-300.065442	645.620697	29.757205	-256.623489	574.182237	18.618647	-208.629194	576.335503	25.339477	-271.266253	516.418003	37.697812	-280.234278	449.324262	46.456583	-254.104470	419.536749	175.778119	-398.996421	361.988064	85.587199	-456.287209	412.516579	44.118716	-450.485875	376.351183	66.021709	-527.167066	362.122185	104.762442	-651.714117	405.834666	111.823245	-636.581895	372.669979	191.479877	-704.513016	458.457147	182.332469	-687.271497	247.033933	156.659940	-724.761528	299.389227	70.834126	-688.338631	256.063142	107.253635	-242.181621	763.384592	447.064318	-191.411625	724.613234	440.799935	-162.176644	736.972251	426.728762	-194.611479	639.611931	432.858642	-179.780678	452.167814	379.477060	-149.336444	465.672035	256.827510	-195.996054	247.663285	307.632168	-293.039288	200.827695	335.915714	-252.050893	181.243148	319.254110	-264.223653	140.209184	281.432270	-338.927707	100.692996	299.177126	-327.153735	114.894962	218.447394	-431.756270	59.477269	241.084285	-204.071018	55.101021	246.493679	-213.050059	54.181736	288.095188	-259.626596	30.606494	341.230251	
352	1.755000	36.289054	1531.784056	250.315051	-97.654471	1575.212913	229.276203	-114.494462	1572.281887	356.602450	-253.720060	1452.667293	281.828775	-348.751602	1129.794931	237.867151	-119.072579	1340.623845	266.901138	-181.546926	1445.792560	97.426950	-232.683661	1271.050531	-0.972686	-212.774316	1229.147781	11.708062	-252.364373	1210.613940	-28.466890	-301.096431	1145.801862	-58.309606	-342.651276	1123.260174	33.089413	-151.122713	940.408098	-1.129915	-139.690688	975.580014	65.925260	-65.441600	935.511130	73.139212	-207.055964	1393.435366	457.286907	-273.842195	1234.227773	540.986662	-239.809659	1197.971476	545.172379	-289.690375	1170.400975	566.424632	-284.176127	1059.041271	587.006279	-324.470152	1041.997201	517.643985	-63.260766	980.751201	458.498456	-64.275786	921.191783	508.364043	17.328218	964.388405	458.643796	-201.439218	928.010248	129.715292	-219.226151	947.606702	378.448819	-381.348423	1023.290878	234.043055	-386.417542	990.569917	207.543191	-391.638516	995.175677	264.670830	-269.013415	646.531416	30.193184	-223.308720	576.469027	19.076953	-175.314858	579.989202	25.956881	-235.739261	518.345492	38.819833	-241.378955	450.807553	48.052991	-215.320879	422.863857	177.718611	-357.588779	361.036622	88.187873	-415.873591	408.828071	44.916990	-409.320240	373.410897	68.030065	-485.830239	358.375754	106.718893	-612.078388	399.021611	113.135180	-596.598090	367.063389	193.014345	-667.246352	450.585587	182.818960	-643.231345	239.647859	158.975049	-681.368445	290.195871	72.365240	-644.012789	248.019717	109.481923	-220.489570	762.311563	446.834662	-170.897355	722.016263	440.168819	-141.673108	733.272012	425.282498	-176.678054	637.051046	432.819313	-169.274530	447.603335	379.811276	-140.292366	459.594149	256.831546	-190.723621	244.547492	307.173616	-288.905553	200.277605	335.683159	-248.469034	179.599507	318.805812	-262.080825	139.230082	280.810013	-338.026087	102.010446	299.232764	-325.721269	116.297956	218.560487	-431.443695	61.574256	240.889378	-203.970844	55.067446	246.683232	-213.160478	54.055475	288.239092	-259.850517	30.590443	341.137146	
